<svg aria-hidden="true" style="position: absolute; width: 0; height: 0; overflow: hidden;" version="1.1" xmlns="http://www.w3.org/2000/svg" xmlns:xlink="http://www.w3.org/1999/xlink">
<defs>
<symbol id="close" viewBox="0 0 32 32">
 <path d="M3 3L12 12L21 21M3 21L21 3" stroke="#F8F9F3" style="stroke:#F8F9F3;stroke:color(display-p3 0.9725 0.9765 0.9529);stroke-opacity:1;" stroke-width="2" stroke-linecap="round" stroke-linejoin="round" />
</symbol>
<symbol id="menu" viewBox="0 0 32 32">
 <path d="M3 12H21M3 6H21M3 18H21" stroke="#F8F9F3" style="stroke:#F8F9F3;stroke:color(display-p3 0.9725 0.9765 0.9529);stroke-opacity:1;" stroke-width="2" stroke-linecap="round" stroke-linejoin="round" />
</symbol>
<symbol id="left">
<svg width="24" height="24" viewBox="0 0 24 24" fill="none" xmlns="http://www.w3.org/2000/svg">
  <g clip-path="url(#clip0_141_4248)">
    <path d="M2 12L24 12" stroke="#EC662C" style="stroke:#EC662C;stroke:color(display-p3 0.9255 0.4000 0.1725);stroke-opacity:1;" stroke-width="2" stroke-linecap="square" stroke-linejoin="round" />
    <path d="M7 18L1 12L7 6" stroke="#EC662C" style="stroke:#EC662C;stroke:color(display-p3 0.9255 0.4000 0.1725);stroke-opacity:1;" stroke-width="2" stroke-linecap="round" stroke-linejoin="round" />
  </g>
  <defs>
    <clipPath id="clip0_141_4248">
      <rect width="24" height="24" fill="white" style="fill:white;fill-opacity:1;" transform="matrix(-1 0 0 -1 24 24)" />
    </clipPath>
  </defs>
</svg>
</symbol>
<symbol id="right">
<svg width="24" height="24" viewBox="0 0 24 24" fill="none" xmlns="http://www.w3.org/2000/svg">
  <g clip-path="url(#clip0_141_4245)">
    <path d="M22 12H0" stroke="#EC662C" style="stroke:#EC662C;stroke:color(display-p3 0.9255 0.4000 0.1725);stroke-opacity:1;" stroke-width="2" stroke-linecap="square" stroke-linejoin="round" />
    <path d="M17 6L23 12L17 18" stroke="#EC662C" style="stroke:#EC662C;stroke:color(display-p3 0.9255 0.4000 0.1725);stroke-opacity:1;" stroke-width="2" stroke-linecap="round" stroke-linejoin="round" />
  </g>
  <defs>
    <clipPath id="clip0_141_4245">
      <rect width="24" height="24" fill="white" style="fill:white;fill-opacity:1;" />
    </clipPath>
  </defs>
</svg>
</symbol>
<symbol id="icon-warning" viewBox="0 0 37 32">
<path fill="none" stroke="#fff" style="stroke: var(--color1, #fff)" stroke-linejoin="round" stroke-linecap="round" stroke-miterlimit="4" stroke-width="1.9394" d="M18.424 12.364v6.788M18.424 24.243h0.017M15.645 3.185l-13.756 22.967c-0.284 0.491-0.434 1.048-0.435 1.615s0.145 1.125 0.426 1.617 0.686 0.903 1.174 1.191c0.489 0.288 1.044 0.442 1.611 0.449h27.515c0.567-0.006 1.122-0.161 1.61-0.449s0.893-0.698 1.174-1.19c0.281-0.492 0.428-1.050 0.426-1.617s-0.151-1.123-0.434-1.614l-13.756-22.97c-0.289-0.478-0.697-0.873-1.184-1.147s-1.036-0.418-1.594-0.418-1.108 0.144-1.594 0.418c-0.487 0.274-0.894 0.669-1.184 1.147v0.002z"></path>
</symbol>
</defs>
</svg>
